#!OML:ASF H:\ManfredETheater\Project 1\Capture day 1\Session 1\subject.ASF
:FULLY-SPECIFIED
:DEGREES
481
root -1.46806 15.5255 33.1207 21.3832 10.3732 -9.42243
lowerback 15.8936 0.535899 10.3063
upperback -0.772136 2.98057 3.15148
thorax -9.48113 0.998693 -3.08512
lowerneck -19.8268 -3.54432 -3.35933
upperneck -1.82365 -4.08571 3.7256
head 3.05464 -1.84774 1.49435
rclavicle -2.16675e-014 -3.65764e-014
rhumerus -51.8312 11.3066 -96.0122
rradius 113.845
rwrist 0.975381
rhand -25.0706 11.5837
rfingers 7.12502
rthumb 1.44335 -18.3912
lclavicle -2.16675e-014 -3.65764e-014
lhumerus -70.3262 -15.4687 96.8623
lradius 90.5034
lwrist 6.30155
lhand -30.3478 -16.5832
lfingers 7.12502
lthumb -3.65335 13.3652
rfemur 0.896372 -0.0928054 30.9451
rtibia 32.2661
rfoot -6.16852 1.99367
rtoes -45.9812
lfemur -74.4127 5.38928 -17.2167
ltibia 76.6827
lfoot -15.6427 -10.0002
ltoes -16.0774
482
root -1.39208 15.5562 33.5992 20.7233 10.9074 -9.96721
lowerback 15.6352 0.577357 10.9342
upperback -0.743438 3.12992 3.30729
thorax -9.26473 1.05613 -3.28756
lowerneck -20.5875 -3.68025 -3.45216
upperneck -0.586614 -4.23977 3.78257
head 3.17438 -1.9019 1.36647
rclavicle -3.3197e-014 -1.07344e-014
rhumerus -52.4648 11.2967 -96.0072
rradius 113.935
rwrist 0.783205
rhand -25.5741 11.5922
rfingers 7.12502
rthumb 0.957134 -18.3854
lclavicle -3.3197e-014 -1.07344e-014
lhumerus -71.1328 -15.1796 96.8316
lradius 91.3147
lwrist 6.49682
lhand -30.3785 -16.6319
lfingers 7.12502
lthumb -3.68294 13.316
rfemur 3.39887 0.93511 31.5351
rtibia 30.3087
rfoot 0.307027 3.58068
rtoes -43.5141
lfemur -74.526 4.97206 -17.2997
ltibia 72.672
lfoot -14.2757 -11.2165
ltoes -15.1646
483
root -1.31582 15.5693 34.0729 20.0977 11.3921 -10.5307
lowerback 15.3688 0.622352 11.5367
upperback -0.718358 3.27495 3.47364
thorax -9.04831 1.11434 -3.46093
lowerneck -21.0486 -3.79844 -3.59545
upperneck 0.13871 -4.36266 3.77806
head 3.47251 -1.95479 1.36497
rclavicle 3.57812e-015 2.94201e-014
rhumerus -53.0342 11.1981 -95.908
rradius 113.671
rwrist 0.291915
rhand -25.9454 11.3593
rfingers 7.12502
rthumb 0.598501 -18.6196
lclavicle 3.57812e-015 2.94201e-014
lhumerus -71.7441 -14.7713 96.7585
lradius 92.0419
lwrist 6.57033
lhand -30.3477 -16.6943
lfingers 7.12502
lthumb -3.65323 13.2541
rfemur 5.41523 2.01004 32.2025
rtibia 29.1241
rfoot 6.14103 4.88721
rtoes -40.5839
lfemur -74.5168 4.60815 -17.4124
ltibia 68.6468
lfoot -12.3293 -12.4988
ltoes -13.9368
484
root -1.23996 15.5806 34.5459 19.5147 11.8216 -11.0844
lowerback 15.0861 0.675367 12.0721
upperback -0.69883 3.41232 3.6427
thorax -8.83158 1.17328 -3.58999
lowerneck -21.4814 -3.8975 -3.71957
upperneck 0.811193 -4.46285 3.77053
head 3.7501 -1.99747 1.36181
rclavicle -7.15625e-015 4.41302e-014
rhumerus -53.5425 11.0002 -95.7187
rradius 113.067
rwrist -0.395342
rhand -26.1425 10.9068
rfingers 7.12502
rthumb 0.408147 -19.0725
lclavicle -7.15625e-015 4.41302e-014
lhumerus -72.1688 -14.2584 96.6537
lradius 92.6949
lwrist 6.57881
lhand -30.2669 -16.8146
lfingers 7.12502
lthumb -3.57517 13.1352
rfemur 6.85636 3.04737 32.9012
rtibia 28.9072
rfoot 10.6347 6.08098
rtoes -37.6006
lfemur -74.308 4.31942 -17.5832
ltibia 64.6553
lfoot -9.87537 -13.7786
ltoes -12.2527
485
root -1.16615 15.5807 35.0153 18.9762 12.1977 -11.5973
lowerback 14.7813 0.735008 12.5066
upperback -0.682242 3.53251 3.80546
thorax -8.61125 1.22973 -3.66427
lowerneck -21.8663 -3.97423 -3.81929
upperneck 1.42206 -4.53893 3.76527
head 4.00136 -2.02902 1.35856
rclavicle 3.37934e-014 4.33351e-014
rhumerus -53.9857 10.6996 -95.4515
rradius 112.143
rwrist -1.17173
rhand -26.1294 10.2487
rfingers 7.12502
rthumb 0.420809 -19.7306
lclavicle 3.37934e-014 4.33351e-014
lhumerus -72.4112 -13.6571 96.5188
lradius 93.2918
lwrist 6.54542
lhand -30.1815 -16.9513
lfingers 7.12502
lthumb -3.49269 12.9998
rfemur 7.68513 3.95276 33.5787
rtibia 29.8017
rfoot 13.4194 7.15472
rtoes -34.9751
lfemur -73.9843 4.10665 -17.8535
ltibia 60.8648
lfoot -7.0346 -14.9405
ltoes -10.1381
486
root -1.09459 15.57 35.4816 18.4687 12.528 -12.0408
lowerback 14.4635 0.793849 12.8205
upperback -0.664585 3.62336 3.95296
thorax -8.39088 1.27806 -3.68129
lowerneck -22.1853 -4.02497 -3.88639
upperneck 1.96657 -4.58954 3.76249
head 4.22172 -2.04875 1.35465
rclavicle 2.06736e-014 5.12864e-014
rhumerus -54.3591 10.294 -95.1117
rradius 110.92
rwrist -1.94135
rhand -25.8885 9.4451
rfingers 7.12502
rthumb 0.653434 -20.5336
lclavicle 2.06736e-014 5.12864e-014
lhumerus -72.4829 -12.9802 96.3604
lradius 93.8372
lwrist 6.50138
lhand -30.0959 -17.0889
lfingers 7.12502
lthumb -3.41009 12.8636
rfemur 7.97121 4.63794 34.1773
rtibia 31.7267
rfoot 14.5184 7.96581
rtoes -33.2203
lfemur -73.5536 3.97285 -18.2623
ltibia 57.4065
lfoot -4.02543 -15.8598
ltoes -7.60211
487
root -1.02484 15.5499 35.9447 17.9639 12.8053 -12.3912
lowerback 14.1634 0.845229 12.9984
upperback -0.633571 3.67804 4.0777
thorax -8.17641 1.315 -3.64154
lowerneck -22.4391 -4.04763 -3.92082
upperneck 2.44941 -4.61287 3.76408
head 4.41243 -2.0555 1.35103
rclavicle -3.81667e-014 -6.04305e-014
rhumerus -54.6453 9.79455 -94.7071
rradius 109.417
rwrist -2.59606
rhand -25.4468 8.54622
rfingers 7.12502
rthumb 1.08 -21.4308
lclavicle -3.81667e-014 -6.04305e-014
lhumerus -72.3863 -12.2338 96.186
lradius 94.3326
lwrist 6.45826
lhand -30.0481 -17.2306
lfingers 7.12502
lthumb -3.36389 12.7226
rfemur 7.80938 5.03605 34.628
rtibia 34.5515
rfoot 14.2623 8.33958
rtoes -32.5444
lfemur -73.024 3.93127 -18.85
ltibia 54.4622
lfoot -1.15062 -16.4577
ltoes -4.55588
488
root -0.955794 15.5217 36.4042 17.4294 13.0277 -12.6491
lowerback 13.9233 0.881212 13.0601
upperback -0.590545 3.69823 4.17594
thorax -7.99224 1.33831 -3.56266
lowerneck -22.5996 -4.043 -3.92784
upperneck 2.87426 -4.61022 3.76863
head 4.57048 -2.05028 1.34841
rclavicle 5.62561e-014 3.49861e-014
rhumerus -54.854 9.20982 -94.2496
rradius 107.655
rwrist -3.08193
rhand -24.8539 7.61447
rfingers 7.12502
rthumb 1.65265 -22.3589
lclavicle 5.62561e-014 3.49861e-014
lhumerus -72.1469 -11.4311 96.0078
lradius 94.7777
lwrist 6.41925
lhand -30.04 -17.3831
lfingers 7.12502
lthumb -3.35604 12.5702
rfemur 7.3279 5.12824 34.8936
rtibia 38.0418
rfoot 13.2044 8.08859
rtoes -32.7023
lfemur -72.4081 3.99324 -19.6193
ltibia 52.2079
lfoot 1.31992 -16.7161
ltoes -0.841717
489
root -0.885636 15.4879 36.8598 16.8327 13.1745 -12.8108
lowerback 13.7884 0.898316 13.017
upperback -0.528933 3.68918 4.24198
thorax -7.85525 1.3486 -3.46028
lowerneck -22.6697 -4.00779 -3.90455
upperneck 3.25651 -4.57786 3.7687
head 4.70049 -2.03163 1.34431
rclavicle -7.7526e-015 1.23246e-014
rhumerus -54.9802 8.55481 -93.7494
rradius 105.654
rwrist -3.36874
rhand -24.2172 6.73438
rfingers 7.12502
rthumb 2.26756 -23.2333
lclavicle -7.7526e-015 1.23246e-014
lhumerus -71.7759 -10.5815 95.8353
lradius 95.1774
lwrist 6.38379
lhand -30.0731 -17.5056
lfingers 7.12502
lthumb -3.38806 12.4472
rfemur 6.64119 4.97315 34.9489
rtibia 41.9777
rfoot 11.9378 7.16346
rtoes -33.1613
lfemur -71.7003 4.16448 -20.5435
ltibia 50.7991
lfoot 3.09811 -16.6824
ltoes 3.48924
490
root -0.812498 15.4514 37.3103 16.1429 13.2533 -12.9064
lowerback 13.8031 0.887015 12.9252
upperback -0.448548 3.6562 4.28111
thorax -7.787 1.3447 -3.36182
lowerneck -22.6537 -3.94437 -3.8712
upperneck 3.61353 -4.51453 3.77323
head 4.80905 -1.99847 1.34471
rclavicle -4.63168e-014 -1.78906e-014
rhumerus -55.0286 7.84653 -93.2132
rradius 103.436
rwrist -3.46375
rhand -23.596 5.93923
rfingers 7.12502
rthumb 2.86755 -24.0212
lclavicle -4.63168e-014 -1.78906e-014
lhumerus -71.2824 -9.69718 95.6776
lradius 95.5276
lwrist 6.36112
lhand -30.1318 -17.6169
lfingers 7.12502
lthumb -3.44474 12.335
rfemur 5.8319 4.57603 34.792
rtibia 46.1565
rfoot 10.8187 5.69729
rtoes -33.6393
lfemur -70.88 4.40419 -21.4885
ltibia 50.2967
lfoot 4.01599 -16.3329
ltoes 8.17808
